<svg xmlns="http://www.w3.org/2000/svg" xmlns:xlink="http://www.w3.org/1999/xlink" viewBox="0 0 1005 1005"><path d="M502.5 1005C780 1005 1005 780 1005 502.5S780 0 502.5 0 0 225 0 502.5 225 1005 502.5 1005z" fill="#ebedf6"/><g opacity=".63"><defs><circle id="a" cx="502.5" cy="502.5" r="431"/></defs><clipPath id="b"><use xlink:href="#a" overflow="visible"/></clipPath><path d="M502.5 933.5c238 0 431-193 431-431s-193-431-431-431-431 193-431 431 193 431 431 431z" clip-path="url(#b)" fill="none" stroke="#d7d7e1" stroke-width="6" stroke-miterlimit="50" stroke-dasharray="5,5"/></g><path d="M502.5 892.5c215.4 0 390-174.6 390-390s-174.6-390-390-390-390 174.6-390 390 174.6 390 390 390z" fill="#fff"/><path d="M502.5 793.5c160.7 0 291-130.3 291-291s-130.3-291-291-291-291 130.3-291 291 130.3 291 291 291z" fill="#ebedf6"/><g opacity=".63"><defs><circle id="c" cx="502.5" cy="502.5" r="236"/></defs><clipPath id="d"><use xlink:href="#c" overflow="visible"/></clipPath><path d="M502.5 738.5c130.3 0 236-105.7 236-236s-105.7-236-236-236-236 105.7-236 236 105.7 236 236 236z" clip-path="url(#d)" fill="none" stroke="#d7d7e1" stroke-width="6" stroke-miterlimit="50" stroke-dasharray="5,5"/></g><path d="M502.5 705.5c112.1 0 203-90.9 203-203s-90.9-203-203-203-203 90.9-203 203 90.9 203 203 203z" fill="#fff"/><path d="M502.5 638c74.8 0 135.5-60.7 135.5-135.5S577.3 367 502.5 367 367 427.7 367 502.5 427.7 638 502.5 638z" fill="#ebedf6"/><g opacity=".63"><defs><circle id="e" cx="502.5" cy="502.5" r="113.5"/></defs><clipPath id="f"><use xlink:href="#e" overflow="visible"/></clipPath><path d="M502.5 616c62.7 0 113.5-50.8 113.5-113.5S565.2 389 502.5 389 389 439.8 389 502.5 439.8 616 502.5 616z" clip-path="url(#f)" fill="none" stroke="#d7d7e1" stroke-width="6" stroke-miterlimit="50" stroke-dasharray="5,5"/></g><path d="M502.5 594.5c50.8 0 92-41.2 92-92s-41.2-92-92-92-92 41.2-92 92 41.2 92 92 92z" fill="#fff"/></svg>