<svg xmlns="http://www.w3.org/2000/svg" viewBox="0 0 857 857"><path d="M428.5 857C665.2 857 857 665.2 857 428.5S665.2 0 428.5 0 0 191.8 0 428.5 191.8 857 428.5 857z" fill="#0c143a"/><path d="M428.5 736C598.3 736 736 598.3 736 428.5S598.3 121 428.5 121 121 258.7 121 428.5 258.7 736 428.5 736z" fill="#000f27"/><path d="M428.5 632C540.9 632 632 540.9 632 428.5S540.9 225 428.5 225 225 316.1 225 428.5 316.1 632 428.5 632z" fill="#0c143a"/><path d="M428.5 530c56.1 0 101.5-45.4 101.5-101.5S484.6 327 428.5 327 327 372.4 327 428.5 372.4 530 428.5 530z" fill="#000f27"/><path d="M428.5 479c27.9 0 50.5-22.6 50.5-50.5S456.4 378 428.5 378 378 400.6 378 428.5s22.6 50.5 50.5 50.5z" fill="#0c143a"/></svg>