<svg version="1.1" id="Layer_1" xmlns="http://www.w3.org/2000/svg" x="0" y="0" viewBox="0 0 330 242" xml:space="preserve"><style>.st0{opacity:.5}</style><defs><linearGradient id="SVGID_1_" x1="-766.075" y1="-197.563" x2="376.555" y2="520.847" gradientTransform="matrix(1 0 0 -1 0 242)"><stop offset="0" stop-opacity="0"/><stop offset="1" stop-color="#fff"/></linearGradient><linearGradient id="SVGID_2_" x1="285.017" y1="-215.565" x2="-266.843" y2="751.905" gradientTransform="matrix(1 0 0 -1 0 242)"><stop offset="0" stop-opacity="0"/><stop offset="1" stop-color="#fff"/></linearGradient><linearGradient id="SVGID_3_" x1="66.829" y1="410.298" x2="-138.191" y2="23.128" gradientTransform="matrix(1 0 0 -1 0 242)"><stop offset="0" stop-opacity="0"/><stop offset="1" stop-color="#fff"/></linearGradient></defs><path class="st0" d="M-18.6-328.1l133.8 23.6c56.6 10 103.5 49.4 123.1 103.3l46.5 127.7c19.6 54 9 114.3-27.9 158.3l-87.3 104.1c-36.9 44-94.5 64.9-151.1 55l-133.8-23.6c-56.6-10-103.5-49.4-123.1-103.3l-46.5-127.7c-19.6-54-9-114.3 27.9-158.3l87.3-104.1c37-44 94.6-65 151.1-55z" fill="url(#SVGID_1_)"/><path class="st0" d="M18.6-366.2l147.2 45C228-302.2 275.4-251.4 290-188l34.6 150c14.6 63.4-5.7 129.8-53.2 174.1l-112.6 105c-47.6 44.4-115.2 60-177.4 41l-147.2-45C-228 218-275.4 167.2-290 103.8l-34.6-150c-14.6-63.4 5.7-129.8 53.2-174.1l112.6-105c47.6-44.3 115.2-59.9 177.4-40.9z" fill="url(#SVGID_2_)"/><path class="st0" d="M-221.5 55.2l-19.9-113c-8.4-47.8 9.3-96.4 46.4-127.5l87.9-73.7C-70-290.2-19-299.1 26.6-282.6l107.8 39.2c45.6 16.6 78.8 56.2 87.2 104l19.9 113c8.4 47.8-9.3 96.4-46.4 127.5l-87.9 73.7C70 206 19.1 215-26.5 198.4l-107.8-39.2c-45.6-16.6-78.8-56.2-87.2-104z" fill="url(#SVGID_3_)"/></svg>